<?xml version="1.0" encoding="UTF-8" standalone="no"?>
<svg
   xmlns:dc="http://purl.org/dc/elements/1.1/"
   xmlns:cc="http://creativecommons.org/ns#"
   xmlns:rdf="http://www.w3.org/1999/02/22-rdf-syntax-ns#"
   xmlns:svg="http://www.w3.org/2000/svg"
   xmlns="http://www.w3.org/2000/svg"
   viewBox="0 0 500 500"
   height="500"
   width="500"
   xml:space="preserve"
   id="svg2"
   version="1.1"><metadata
     id="metadata8"><rdf:RDF><cc:Work
         rdf:about=""><dc:format>image/svg+xml</dc:format><dc:type
           rdf:resource="http://purl.org/dc/dcmitype/StillImage" /></cc:Work></rdf:RDF></metadata><defs
     id="defs6"><clipPath
       id="clipPath14"
       clipPathUnits="userSpaceOnUse"><path
         id="path12"
         d="M 0,8.039989 H 375 V 383.03998 H 0 Z" /></clipPath><clipPath
       id="clipPath24"
       clipPathUnits="userSpaceOnUse"><path
         style="clip-rule:evenodd"
         id="path22"
         d="M 0,0 H 1562.5 V 1562.5 H 0 Z" /></clipPath><clipPath
       id="clipPath36"
       clipPathUnits="userSpaceOnUse"><path
         style="clip-rule:evenodd"
         id="path34"
         d="M 0,0 H 1562.5 V 1562.5 H 0 Z" /></clipPath><clipPath
       id="clipPath48"
       clipPathUnits="userSpaceOnUse"><path
         id="path46"
         d="M 0,0 H 1562.5 V 1593.75 H 0 Z" /></clipPath><clipPath
       id="clipPath54"
       clipPathUnits="userSpaceOnUse"><path
         id="path52"
         d="M 0,0 H 1562.5 V 1562.5 H 0 Z" /></clipPath><clipPath
       id="clipPath60"
       clipPathUnits="userSpaceOnUse"><path
         id="path58"
         d="M 0,0 H 1562.5 V 1562.5 H 0 Z" /></clipPath><clipPath
       id="clipPath66"
       clipPathUnits="userSpaceOnUse"><path
         id="path64"
         d="M 156.25,768.71655 H 355.20883 V 967.67541 H 156.25 Z" /></clipPath><clipPath
       id="clipPath72"
       clipPathUnits="userSpaceOnUse"><path
         id="path70"
         d="m 255.72942,768.71655 c -54.94097,0 -99.47942,44.53845 -99.47942,99.47943 0,54.94098 44.53845,99.47944 99.47942,99.47944 54.94096,0 99.47941,-44.53846 99.47941,-99.47944 0,-54.94098 -44.53845,-99.47943 -99.47941,-99.47943 z" /></clipPath><clipPath
       id="clipPath84"
       clipPathUnits="userSpaceOnUse"><path
         id="path82"
         d="M 0,0 H 1562.5 V 1593.75 H 0 Z" /></clipPath><clipPath
       id="clipPath90"
       clipPathUnits="userSpaceOnUse"><path
         id="path88"
         d="M 0,0 H 1562.5 V 1562.5 H 0 Z" /></clipPath><clipPath
       id="clipPath96"
       clipPathUnits="userSpaceOnUse"><path
         id="path94"
         d="M 0,0 H 1562.5 V 1562.5 H 0 Z" /></clipPath><clipPath
       id="clipPath102"
       clipPathUnits="userSpaceOnUse"><path
         id="path100"
         d="M 374.17532,768.71655 H 573.13415 V 967.67541 H 374.17532 Z" /></clipPath><clipPath
       id="clipPath108"
       clipPathUnits="userSpaceOnUse"><path
         id="path106"
         d="m 473.65472,768.71655 c -54.94094,0 -99.4794,44.53845 -99.4794,99.47943 0,54.94098 44.53846,99.47944 99.4794,99.47944 54.94098,0 99.47944,-44.53846 99.47944,-99.47944 0,-54.94098 -44.53846,-99.47943 -99.47944,-99.47943 z" /></clipPath><clipPath
       id="clipPath120"
       clipPathUnits="userSpaceOnUse"><path
         id="path118"
         d="M 0,0 H 1562.5 V 1593.75 H 0 Z" /></clipPath><clipPath
       id="clipPath126"
       clipPathUnits="userSpaceOnUse"><path
         id="path124"
         d="M 0,0 H 1562.5 V 1562.5 H 0 Z" /></clipPath><clipPath
       id="clipPath132"
       clipPathUnits="userSpaceOnUse"><path
         id="path130"
         d="M 0,0 H 1562.5 V 1562.5 H 0 Z" /></clipPath><clipPath
       id="clipPath138"
       clipPathUnits="userSpaceOnUse"><path
         id="path136"
         d="M 399.81357,533.51685 H 518.25946 V 651.96271 H 399.81357 Z" /></clipPath><clipPath
       id="clipPath144"
       clipPathUnits="userSpaceOnUse"><path
         id="path142"
         d="m 459.0365,533.51685 c -32.70792,0 -59.22293,26.51501 -59.22293,59.22296 0,32.70788 26.51501,59.2229 59.22293,59.2229 32.70795,0 59.22296,-26.51502 59.22296,-59.2229 0,-32.70795 -26.51501,-59.22296 -59.22296,-59.22296 z" /></clipPath><clipPath
       id="clipPath156"
       clipPathUnits="userSpaceOnUse"><path
         style="clip-rule:evenodd"
         id="path154"
         d="M 237.71396,638.45465 H 480.64411 V 945.31384 H 237.71396 Z" /></clipPath><clipPath
       id="clipPath170"
       clipPathUnits="userSpaceOnUse"><path
         style="clip-rule:evenodd"
         id="path168"
         d="M 0,0 H 1562.5 V 1562.5 H 0 Z" /></clipPath></defs><g
     clip-path="url(#clipPath14)"
     transform="matrix(1.3333333,0,0,-1.3333333,0,510.71997)"
     id="g10"><g
       transform="matrix(0.31999998,0,0,0.31999998,0,9.434666e-6)"
       id="g16"><g
         id="g18"><g
           clip-path="url(#clipPath24)"
           id="g20"><g
             transform="scale(3.125)"
             id="g26"><path
               id="path28"
               style="fill:#ffffff;fill-opacity:1;fill-rule:nonzero;stroke:none"
               d="M 0,0 H 500 V 500 H 0 Z" /></g></g></g><g
         id="g30"><g
           clip-path="url(#clipPath36)"
           id="g32"><g
             transform="scale(3.125)"
             id="g38"><path
               id="path40"
               style="fill:#ffffff;fill-opacity:1;fill-rule:nonzero;stroke:none"
               d="M 0,0 H 500 V 500 H 0 Z" /></g></g></g><g
         id="g42"><g
           clip-path="url(#clipPath48)"
           id="g44"><g
             clip-path="url(#clipPath54)"
             id="g50"><g
               clip-path="url(#clipPath60)"
               id="g56"><g
                 clip-path="url(#clipPath66)"
                 id="g62"><g
                   clip-path="url(#clipPath72)"
                   id="g68"><g
                     transform="matrix(0.77718294,0,0,0.77718294,156.25,768.71655)"
                     id="g74"><path
                       id="path76"
                       style="fill:#000000;fill-opacity:1;fill-rule:nonzero;stroke:none"
                       d="M 0,0 H 256 V 256 H 0 Z" /></g></g></g></g></g></g></g><g
         id="g78"><g
           clip-path="url(#clipPath84)"
           id="g80"><g
             clip-path="url(#clipPath90)"
             id="g86"><g
               clip-path="url(#clipPath96)"
               id="g92"><g
                 clip-path="url(#clipPath102)"
                 id="g98"><g
                   clip-path="url(#clipPath108)"
                   id="g104"><g
                     transform="matrix(0.77718294,0,0,0.77718294,374.17532,768.71655)"
                     id="g110"><path
                       id="path112"
                       style="fill:#000000;fill-opacity:1;fill-rule:nonzero;stroke:none"
                       d="M 0,0 H 256 V 256 H 0 Z" /></g></g></g></g></g></g></g><g
         id="g114"><g
           clip-path="url(#clipPath120)"
           id="g116"><g
             clip-path="url(#clipPath126)"
             id="g122"><g
               clip-path="url(#clipPath132)"
               id="g128"><g
                 clip-path="url(#clipPath138)"
                 id="g134"><g
                   clip-path="url(#clipPath144)"
                   id="g140"><g
                     transform="matrix(0.46267921,0,0,0.46267921,399.81357,533.51685)"
                     id="g146"><path
                       id="path148"
                       style="fill:#000000;fill-opacity:1;fill-rule:nonzero;stroke:none"
                       d="M 0,0 H 256 V 256 H 0 Z" /></g></g></g></g></g></g></g><g
         id="g150"><g
           clip-path="url(#clipPath156)"
           id="g152"><g
             transform="matrix(1.2061341,0,0,1.2061341,241.67154,641.22876)"
             id="g158"><path
               id="path160"
               style="fill:#16a637;fill-opacity:1;fill-rule:nonzero;stroke:none"
               d="M 146.5,6.4000001 7.5,116.6 92.900002,131.8 14.7,246.7 189.89999,94.900002 102.3,90.5 Z" /><path
               id="path162"
               style="fill:#16a637;fill-opacity:1;fill-rule:nonzero;stroke:none"
               d="m 143.5,3 c -15.6,12.4 -31.2,24.700001 -46.699997,37.099998 -25,19.8 -50,39.599999 -75,59.5 C 16.100002,104.1 10.300003,108.7 4.6000023,113.2 c -1.0999999,0.9 -7.8000002,9.1 -2.8,10 24.9000007,4.4 49.7999997,8.89999 74.6999977,13.3 3.599998,0.60001 7.099998,1.3 10.699997,1.89999 C 87.099998,136.2 87.099998,134 87,131.89999 64.099998,165.39999 41.299999,199 18.4,232.5 c -3.2,4.8 -6.5,9.5 -9.7000002,14.3 -1.3000002,1.9 -2.5,5.30001 0.1999998,6.5 C 11.7,254.60001 15.7,251.8 17.599998,250.10001 37.5,233 57.200001,215.8 77,198.7 108.4,171.5 139.8,144.29999 171.10001,117.1 178.3,110.8 185.5,104.6 192.8,98.300003 c 2.2,-1.900001 7.9,-9.900001 1.4,-10.199997 -25.5,-1.300003 -50.90001,-2.5 -76.4,-3.800003 -3.7,-0.199997 -7.40001,-0.400001 -11.2,-0.599998 0.8,1.699997 1.7,3.400001 2.5,5 12.9,-24.599999 25.79999,-49.099999 38.7,-73.699997 1.80001,-3.5 3.7,-7.0000004 5.5,-10.4 1.80001,-3.4000001 -1,-5.49999999 -4.19999,-4.80000018 -4.2,0.90000004 -7.7,4.69999978 -9.60001,8.39999958 -12.9,24.5999996 -25.8,49.0999996 -38.7,73.6999946 -1.8,3.5 -3.699994,7 -5.499997,10.400001 -1.300003,2.400002 -0.199997,4.900002 2.5,5 25.499997,1.300003 50.900007,2.5 76.400007,3.800007 3.7,0.19999 7.4,0.4 11.2,0.6 0.5,-3.400007 0.89999,-6.800008 1.39999,-10.200002 C 167,108.70001 147.20001,125.8 127.5,143 c -31.400002,27.2 -62.800003,54.39999 -94.099998,81.60001 -7.200001,6.3 -14.4,12.5 -21.700001,18.8 3,1.10001 6,2.2 8.899999,3.3 22.800002,-33.6 45.700003,-67.1 68.499998,-100.7 3.199997,-4.8 6.5,-9.5 9.699997,-14.3 0.900002,-1.3 2.800005,-6 -0.199997,-6.5 -24.900001,-4.4 -49.799999,-8.9 -74.699996,-13.3 -3.600001,-0.6 -7.100001,-1.3 -10.7,-1.9 -0.9,3.3 -1.900001,6.7 -2.8,10 C 26,107.6 41.599998,95.300003 57.200001,82.900002 82.199997,63.100002 107.2,43.300003 132.2,23.400002 c 5.69999,-4.5 11.5,-9.100001 17.19999,-13.6000009 2.10001,-1.6000003 6.2,-6.5 3.80001,-9.30000015 C 150.8,-2.3 145.39999,1.5 143.5,3 Z" /></g></g></g><g
         id="g164"><g
           clip-path="url(#clipPath170)"
           id="g166"><g
             transform="matrix(8.5161772,0,0,8.5161772,614.57672,589.22723)"
             id="g172"><text
               id="text176"
               style="font-variant:normal;font-weight:bold;font-size:25.71999931px;font-family:LeagueSpartan;-inkscape-font-specification:LeagueSpartan-Bold;writing-mode:lr-tb;fill:#16a637;fill-opacity:1;fill-rule:nonzero;stroke:none"
               transform="translate(0,18)"><tspan
                 id="tspan174"
                 y="0"
                 x="0 14.91684 32.045486 39.966843 60.207458 75.124298">EBIKES</tspan></text>
</g><g
             transform="matrix(2.8886185,0,0,2.8886185,614.57672,793.61621)"
             id="g178"><text
               id="text182"
               style="font-variant:normal;font-weight:bold;font-size:75.83999634px;font-family:LeagueSpartan;-inkscape-font-specification:LeagueSpartan-Bold;writing-mode:lr-tb;fill:#000000;fill-opacity:1;fill-rule:nonzero;stroke:none"
               transform="translate(0,56)"><tspan
                 id="tspan180"
                 y="0"
                 x="0 55.656895 94.859093 145.35968 164.92239 218.22861">AFRICA</tspan></text>
</g></g></g></g></g></svg>