<?xml version="1.0" encoding="UTF-8" standalone="no"?>
<svg
   xmlns:dc="http://purl.org/dc/elements/1.1/"
   xmlns:cc="http://creativecommons.org/ns#"
   xmlns:rdf="http://www.w3.org/1999/02/22-rdf-syntax-ns#"
   xmlns:svg="http://www.w3.org/2000/svg"
   xmlns="http://www.w3.org/2000/svg"
   viewBox="0 0 500 500"
   height="500"
   width="500"
   xml:space="preserve"
   id="svg2"
   version="1.1"><metadata
     id="metadata8"><rdf:RDF><cc:Work
         rdf:about=""><dc:format>image/svg+xml</dc:format><dc:type
           rdf:resource="http://purl.org/dc/dcmitype/StillImage" /></cc:Work></rdf:RDF></metadata><defs
     id="defs6"><clipPath
       id="clipPath14"
       clipPathUnits="userSpaceOnUse"><path
         id="path12"
         d="M 0,8.039989 H 375 V 383.03998 H 0 Z" /></clipPath><clipPath
       id="clipPath24"
       clipPathUnits="userSpaceOnUse"><path
         style="clip-rule:evenodd"
         id="path22"
         d="M 0,0 H 1562.5 V 1562.5 H 0 Z" /></clipPath><clipPath
       id="clipPath36"
       clipPathUnits="userSpaceOnUse"><path
         style="clip-rule:evenodd"
         id="path34"
         d="M 0,0 H 1562.5 V 1562.5 H 0 Z" /></clipPath><clipPath
       id="clipPath48"
       clipPathUnits="userSpaceOnUse"><path
         style="clip-rule:evenodd"
         id="path46"
         d="M 0,0 H 1562.5 V 1562.5 H 0 Z" /></clipPath><clipPath
       id="clipPath68"
       clipPathUnits="userSpaceOnUse"><path
         id="path66"
         d="M 0,0 H 1562.5 V 1593.75 H 0 Z" /></clipPath><clipPath
       id="clipPath74"
       clipPathUnits="userSpaceOnUse"><path
         id="path72"
         d="M 0,0 H 1562.5 V 1562.5 H 0 Z" /></clipPath><clipPath
       id="clipPath80"
       clipPathUnits="userSpaceOnUse"><path
         id="path78"
         d="M 0,0 H 1562.5 V 1562.5 H 0 Z" /></clipPath><clipPath
       id="clipPath86"
       clipPathUnits="userSpaceOnUse"><path
         id="path84"
         d="m 483.62418,615.4472 h 289.4642 v 289.46417 h -289.4642 z" /></clipPath><clipPath
       id="clipPath92"
       clipPathUnits="userSpaceOnUse"><path
         id="path90"
         d="m 628.35626,615.4472 c -79.93335,0 -144.73208,64.79877 -144.73208,144.73212 0,79.93329 64.79873,144.73206 144.73208,144.73206 79.93329,0 144.73212,-64.79877 144.73212,-144.73206 0,-79.93335 -64.79883,-144.73212 -144.73212,-144.73212 z" /></clipPath><clipPath
       id="clipPath104"
       clipPathUnits="userSpaceOnUse"><path
         id="path102"
         d="M 0,0 H 1562.5 V 1593.75 H 0 Z" /></clipPath><clipPath
       id="clipPath110"
       clipPathUnits="userSpaceOnUse"><path
         id="path108"
         d="M 0,0 H 1562.5 V 1562.5 H 0 Z" /></clipPath><clipPath
       id="clipPath116"
       clipPathUnits="userSpaceOnUse"><path
         id="path114"
         d="M 0,0 H 1562.5 V 1562.5 H 0 Z" /></clipPath><clipPath
       id="clipPath122"
       clipPathUnits="userSpaceOnUse"><path
         id="path120"
         d="M 800.68256,615.4472 H 1090.1467 V 904.91137 H 800.68256 Z" /></clipPath><clipPath
       id="clipPath128"
       clipPathUnits="userSpaceOnUse"><path
         id="path126"
         d="m 945.41467,615.4472 c -79.93335,0 -144.73211,64.79877 -144.73211,144.73212 0,79.93329 64.79876,144.73206 144.73211,144.73206 79.93323,0 144.73203,-64.79877 144.73203,-144.73206 0,-79.93335 -64.7988,-144.73212 -144.73203,-144.73212 z" /></clipPath><clipPath
       id="clipPath140"
       clipPathUnits="userSpaceOnUse"><path
         id="path138"
         d="M 0,0 H 1562.5 V 1593.75 H 0 Z" /></clipPath><clipPath
       id="clipPath146"
       clipPathUnits="userSpaceOnUse"><path
         id="path144"
         d="M 0,0 H 1562.5 V 1562.5 H 0 Z" /></clipPath><clipPath
       id="clipPath152"
       clipPathUnits="userSpaceOnUse"><path
         id="path150"
         d="M 0,0 H 1562.5 V 1562.5 H 0 Z" /></clipPath><clipPath
       id="clipPath158"
       clipPathUnits="userSpaceOnUse"><path
         id="path156"
         d="M 837.98352,273.25641 H 1010.3098 V 445.5827 H 837.98352 Z" /></clipPath><clipPath
       id="clipPath164"
       clipPathUnits="userSpaceOnUse"><path
         id="path162"
         d="m 924.14667,273.25641 c -47.58661,0 -86.16315,38.57654 -86.16315,86.16315 0,47.58657 38.57654,86.16314 86.16315,86.16314 47.58661,0 86.16313,-38.57657 86.16313,-86.16314 0,-47.58661 -38.57652,-86.16315 -86.16313,-86.16315 z" /></clipPath><clipPath
       id="clipPath176"
       clipPathUnits="userSpaceOnUse"><path
         style="clip-rule:evenodd"
         id="path174"
         d="M 602.14569,425.92978 H 960.89184 V 876.27069 H 602.14569 Z" /></clipPath></defs><g
     clip-path="url(#clipPath14)"
     transform="matrix(1.3333333,0,0,-1.3333333,0,510.71997)"
     id="g10"><g
       transform="matrix(0.31999998,0,0,0.31999998,0,9.434666e-6)"
       id="g16"><g
         id="g18"><g
           clip-path="url(#clipPath24)"
           id="g20"><g
             transform="scale(3.125)"
             id="g26"><path
               id="path28"
               style="fill:#ffffff;fill-opacity:1;fill-rule:nonzero;stroke:none"
               d="M 0,0 H 500 V 500 H 0 Z" /></g></g></g><g
         id="g30"><g
           clip-path="url(#clipPath36)"
           id="g32"><g
             transform="scale(3.125)"
             id="g38"><path
               id="path40"
               style="fill:#ffffff;fill-opacity:1;fill-rule:nonzero;stroke:none"
               d="M 0,0 H 500 V 500 H 0 Z" /></g></g></g><g
         id="g42"><g
           clip-path="url(#clipPath48)"
           id="g44"><g
             transform="matrix(6.6457191,0,0,6.6457191,472.3533,946.07379)"
             id="g50"><text
               id="text54"
               style="font-variant:normal;font-weight:bold;font-size:25.71999931px;font-family:LeagueSpartan;-inkscape-font-specification:LeagueSpartan-Bold;writing-mode:lr-tb;fill:#16a637;fill-opacity:1;fill-rule:nonzero;stroke:none"
               transform="translate(0,18)"><tspan
                 id="tspan52"
                 y="0"
                 x="0 14.91684 32.045486 39.966843 60.207458 75.124298">EBIKES</tspan></text>
</g><g
             transform="matrix(2.254174,0,0,2.254174,472.3533,1105.5717)"
             id="g56"><text
               id="text60"
               style="font-variant:normal;font-weight:bold;font-size:75.83999634px;font-family:LeagueSpartan;-inkscape-font-specification:LeagueSpartan-Bold;writing-mode:lr-tb;fill:#000000;fill-opacity:1;fill-rule:nonzero;stroke:none"
               transform="translate(0,56)"><tspan
                 id="tspan58"
                 y="0"
                 x="0 55.656895 94.859093 145.35968 164.92239 218.22861">AFRICA</tspan></text>
</g></g></g><g
         id="g62"><g
           clip-path="url(#clipPath68)"
           id="g64"><g
             clip-path="url(#clipPath74)"
             id="g70"><g
               clip-path="url(#clipPath80)"
               id="g76"><g
                 clip-path="url(#clipPath86)"
                 id="g82"><g
                   clip-path="url(#clipPath92)"
                   id="g88"><g
                     transform="matrix(1.1307194,0,0,1.1307194,483.62418,615.4472)"
                     id="g94"><path
                       id="path96"
                       style="fill:#000000;fill-opacity:1;fill-rule:nonzero;stroke:none"
                       d="M 0,0 H 256 V 256 H 0 Z" /></g></g></g></g></g></g></g><g
         id="g98"><g
           clip-path="url(#clipPath104)"
           id="g100"><g
             clip-path="url(#clipPath110)"
             id="g106"><g
               clip-path="url(#clipPath116)"
               id="g112"><g
                 clip-path="url(#clipPath122)"
                 id="g118"><g
                   clip-path="url(#clipPath128)"
                   id="g124"><g
                     transform="matrix(1.1307194,0,0,1.1307194,800.68256,615.4472)"
                     id="g130"><path
                       id="path132"
                       style="fill:#000000;fill-opacity:1;fill-rule:nonzero;stroke:none"
                       d="M 0,0 H 256 V 256 H 0 Z" /></g></g></g></g></g></g></g><g
         id="g134"><g
           clip-path="url(#clipPath140)"
           id="g136"><g
             clip-path="url(#clipPath146)"
             id="g142"><g
               clip-path="url(#clipPath152)"
               id="g148"><g
                 clip-path="url(#clipPath158)"
                 id="g154"><g
                   clip-path="url(#clipPath164)"
                   id="g160"><g
                     transform="matrix(0.67314953,0,0,0.67314953,837.98352,273.25641)"
                     id="g166"><path
                       id="path168"
                       style="fill:#000000;fill-opacity:1;fill-rule:nonzero;stroke:none"
                       d="M 0,0 H 256 V 256 H 0 Z" /></g></g></g></g></g></g></g><g
         id="g170"><g
           clip-path="url(#clipPath176)"
           id="g172"><g
             transform="matrix(1.7548383,0,0,1.7548383,607.93036,429.96594)"
             id="g178"><path
               id="path180"
               style="fill:#16a637;fill-opacity:1;fill-rule:nonzero;stroke:none"
               d="M 146.5,6.4000001 7.5,116.6 92.900002,131.8 14.7,246.7 189.89999,94.900002 102.3,90.5 Z" /><path
               id="path182"
               style="fill:#16a637;fill-opacity:1;fill-rule:nonzero;stroke:none"
               d="m 143.5,3 c -15.6,12.4 -31.2,24.700001 -46.699997,37.099998 -25,19.8 -50,39.599999 -75,59.5 C 16.100002,104.1 10.300003,108.7 4.6000023,113.2 c -1.0999999,0.9 -7.8000002,9.1 -2.8,10 24.9000007,4.4 49.7999997,8.89999 74.6999977,13.3 3.599998,0.60001 7.099998,1.3 10.699997,1.89999 C 87.099998,136.2 87.099998,134 87,131.89999 64.099998,165.39999 41.299999,199 18.4,232.5 c -3.2,4.8 -6.5,9.5 -9.7000002,14.3 -1.3000002,1.9 -2.5,5.30001 0.1999998,6.5 C 11.7,254.60001 15.7,251.8 17.599998,250.10001 37.5,233 57.200001,215.8 77,198.7 108.4,171.5 139.8,144.29999 171.10001,117.1 178.3,110.8 185.5,104.6 192.8,98.300003 c 2.2,-1.900001 7.9,-9.900001 1.4,-10.199997 -25.5,-1.300003 -50.90001,-2.5 -76.4,-3.800003 -3.7,-0.199997 -7.40001,-0.400001 -11.2,-0.599998 0.8,1.699997 1.7,3.400001 2.5,5 12.9,-24.599999 25.79999,-49.099999 38.7,-73.699997 1.80001,-3.5 3.7,-7.0000004 5.5,-10.4 1.80001,-3.4000001 -1,-5.49999999 -4.19999,-4.80000018 -4.2,0.90000004 -7.7,4.69999978 -9.60001,8.39999958 -12.9,24.5999996 -25.8,49.0999996 -38.7,73.6999946 -1.8,3.5 -3.699994,7 -5.499997,10.400001 -1.300003,2.400002 -0.199997,4.900002 2.5,5 25.499997,1.300003 50.900007,2.5 76.400007,3.800007 3.7,0.19999 7.4,0.4 11.2,0.6 0.5,-3.400007 0.89999,-6.800008 1.39999,-10.200002 C 167,108.70001 147.20001,125.8 127.5,143 c -31.400002,27.2 -62.800003,54.39999 -94.099998,81.60001 -7.200001,6.3 -14.4,12.5 -21.700001,18.8 3,1.10001 6,2.2 8.899999,3.3 22.800002,-33.6 45.700003,-67.1 68.499998,-100.7 3.199997,-4.8 6.5,-9.5 9.699997,-14.3 0.900002,-1.3 2.800005,-6 -0.199997,-6.5 -24.900001,-4.4 -49.799999,-8.9 -74.699996,-13.3 -3.600001,-0.6 -7.100001,-1.3 -10.7,-1.9 -0.9,3.3 -1.900001,6.7 -2.8,10 C 26,107.6 41.599998,95.300003 57.200001,82.900002 82.199997,63.100002 107.2,43.300003 132.2,23.400002 c 5.69999,-4.5 11.5,-9.100001 17.19999,-13.6000009 2.10001,-1.6000003 6.2,-6.5 3.80001,-9.30000015 C 150.8,-2.3 145.39999,1.5 143.5,3 Z" /></g></g></g></g></g></svg>